<svg width="38" height="38" viewBox="0 0 38 38" fill="none" xmlns="http://www.w3.org/2000/svg">
<g id="emo-3">
<g id="Group 3">
<mask id="mask0_146_631" style="mask-type:luminance" maskUnits="userSpaceOnUse" x="0" y="0" width="38" height="38">
<path id="Clip 2" fill-rule="evenodd" clip-rule="evenodd" d="M0 0H37.9999V38H0V0Z" fill="white"/>
</mask>
<g mask="url(#mask0_146_631)">
<path id="Fill 1" fill-rule="evenodd" clip-rule="evenodd" d="M19.0219 25.232C17.4095 25.2088 15.7974 25.2913 14.1958 25.479C13.8159 25.5362 13.5878 25.764 13.5878 26.125C13.5878 26.4862 13.8159 26.695 14.2148 26.733L15.2408 26.847C18.0688 27.0725 20.9116 27.0406 23.7339 26.752C24.1708 26.695 24.3988 26.4862 24.3988 26.125C24.3988 25.764 24.1898 25.5362 23.7719 25.479C22.1952 25.3 20.6084 25.2238 19.0219 25.2512V25.232ZM30.8778 20.2162C30.8883 18.2959 29.34 16.7307 27.4198 16.7202C25.4995 16.7098 23.9345 18.2579 23.9239 20.178C23.9136 22.0985 25.4617 23.6636 27.3819 23.674C27.3946 23.6742 27.4071 23.6742 27.4198 23.674C29.3295 23.674 30.8778 22.1257 30.8778 20.2162ZM7.12785 20.2162C7.1383 22.1363 8.70352 23.6845 10.6238 23.674C12.5442 23.6634 14.0923 22.0982 14.0819 20.1778C14.0712 18.2577 12.5062 16.7096 10.5858 16.72C8.67293 16.7305 7.12785 18.2841 7.12785 20.197V20.2162ZM19.0028 1.20982e-05C29.4962 0.0015321 38.0015 8.50935 38 19.0029C37.9985 29.4962 29.4907 38.0015 18.9973 38C8.50402 37.9985 -0.0015198 29.4907 2.03694e-07 18.9974C0.000190204 18.8906 0.000950204 18.7838 0.0028502 18.677C0.16891 8.30567 8.63018 -0.0115779 19.0028 1.20982e-05Z" fill="#FECA00"/>
</g>
</g>
<path id="Fill 4" fill-rule="evenodd" clip-rule="evenodd" d="M30.8791 20.2148C30.8685 22.1349 29.3034 23.6833 27.3831 23.6726C25.4628 23.6622 23.9147 22.0968 23.9251 20.1766C23.9358 18.2563 25.5008 16.7082 27.4211 16.7188C29.334 16.7293 30.8791 18.2829 30.8791 20.1956V20.2148ZM7.12912 20.2148C7.10822 18.3051 8.63924 16.7399 10.5489 16.719C10.5617 16.7188 10.5744 16.7188 10.5871 16.7188C12.5074 16.7082 14.0725 18.2565 14.0831 20.1768C14.0936 22.0969 12.5454 23.6622 10.6251 23.6726C8.70479 23.6831 7.13976 22.1349 7.12912 20.2146C7.12912 20.2083 7.12912 20.2021 7.12912 20.1956V20.2148Z" fill="#171615"/>
<path id="Fill 6" fill-rule="evenodd" clip-rule="evenodd" d="M19.002 25.25C20.5891 25.2294 22.1756 25.3119 23.752 25.497C24.189 25.535 24.417 25.7628 24.398 26.124C24.379 26.485 24.17 26.694 23.733 26.7508C20.9113 27.0456 18.0686 27.0838 15.24 26.865L14.214 26.7508C13.834 26.694 13.606 26.4658 13.587 26.1428C13.568 25.82 13.796 25.535 14.195 25.497C15.7965 25.3092 17.4087 25.2266 19.021 25.25H19.002Z" fill="#191715"/>
</g>
</svg>
