<svg width="38" height="38" viewBox="0 0 38 38" fill="none" xmlns="http://www.w3.org/2000/svg">
<g id="emo-2">
<g id="Group 3">
<mask id="mask0_146_614" style="mask-type:luminance" maskUnits="userSpaceOnUse" x="0" y="0" width="38" height="38">
<path id="Clip 2" fill-rule="evenodd" clip-rule="evenodd" d="M0 0H38V38H0V0Z" fill="white"/>
</mask>
<g mask="url(#mask0_146_614)">
<path id="Fill 1" fill-rule="evenodd" clip-rule="evenodd" d="M27.835 15.8905H28.139L28.519 15.8525C29.7745 15.6889 30.8974 14.9887 31.597 13.9335C31.749 13.6865 31.787 13.4395 31.597 13.2115C31.407 12.9835 31.16 12.9835 30.894 13.1165C30.1363 13.5267 29.3328 13.8457 28.5 14.0665C27.7182 14.2333 26.9238 14.3349 26.125 14.3705C25.84 14.3705 25.555 14.4085 25.46 14.7505C25.365 15.0925 25.65 15.2825 25.897 15.4155C26.4908 15.7394 27.1586 15.903 27.835 15.8905ZM7.011 13.3635C7.01537 13.6445 7.04729 13.9245 7.106 14.1995C7.163 14.5035 7.296 14.7125 7.619 14.7315C7.942 14.7505 8.113 14.5415 8.189 14.2565C8.66286 12.7082 9.4886 11.2904 10.602 10.1145C10.792 9.88646 11.077 9.63946 10.849 9.29746C10.621 8.95546 10.279 9.08846 9.975 9.16446C8.20686 9.80742 7.02468 11.4819 7.011 13.3635ZM21.28 24.4215C20.2958 24.4023 19.3205 24.6103 18.43 25.0295C16.8313 25.7078 15.6049 27.0452 15.067 28.6965C14.953 29.0765 15.029 29.3045 15.276 29.4565C15.523 29.6085 15.77 29.5325 16.036 29.2285C16.6109 28.55 17.2541 27.9325 17.955 27.3855C19.285 26.3785 20.824 25.8465 22.477 25.6375C22.838 25.5995 23.009 25.4095 23.028 25.1245C23.047 24.8395 22.838 24.6305 22.496 24.5545C22.0983 24.4564 21.6895 24.4118 21.28 24.4215ZM14.06 20.2225C14.06 18.3021 12.5033 16.7455 10.583 16.7455C8.66267 16.7455 7.106 18.3023 7.106 20.2225C7.106 22.143 8.66267 23.6995 10.583 23.6995H10.602C12.5149 23.6888 14.06 22.1354 14.06 20.2225ZM23.94 20.2035C23.9506 22.1027 25.4986 23.6337 27.398 23.6235C29.2972 23.6128 30.8285 22.0649 30.8178 20.1655C30.8076 18.2662 29.2592 16.735 27.36 16.7455C25.4756 16.7559 23.9505 18.281 23.94 20.1655V20.2035ZM38 19.0065C37.9964 29.4998 29.4869 38.0034 18.9935 38C8.50022 37.9964 -0.00360885 29.4871 1.14895e-06 18.9937C0.00361115 8.50022 8.51295 -0.00341897 19.0065 1.03123e-06C19.1689 1.03123e-06 19.3316 0.00209103 19.494 0.00646103C29.7941 0.274361 38.0036 8.70295 38 19.0065Z" fill="#FECA00"/>
</g>
</g>
<path id="Fill 4" fill-rule="evenodd" clip-rule="evenodd" d="M14.0595 20.2228C14.0491 22.143 12.4839 23.6913 10.5635 23.6807C8.64319 23.6702 7.09507 22.1048 7.10552 20.1847C7.11616 18.2643 8.68119 16.7162 10.6015 16.7268C12.5219 16.7373 14.07 18.3025 14.0595 20.2227V20.2228ZM23.9395 20.2037C23.9184 18.3046 25.4409 16.7477 27.34 16.7268C27.3656 16.7265 27.3911 16.7265 27.4165 16.7268H27.4355C29.3559 16.7268 30.9125 18.2835 30.9125 20.2037C30.9123 22.1242 29.3557 23.6808 27.4353 23.6807C25.5152 23.6807 23.9585 22.124 23.9585 20.2037V20.1848L23.9395 20.2037Z" fill="#171615"/>
<path id="Fill 6" fill-rule="evenodd" clip-rule="evenodd" d="M21.2799 24.4234C21.6829 24.4167 22.0851 24.4614 22.4769 24.5564C22.8569 24.6324 23.0279 24.8224 23.0089 25.1264C22.9899 25.4304 22.8189 25.5824 22.4579 25.6394C20.8216 25.8079 19.2602 26.4115 17.9359 27.3874C17.2424 27.9294 16.6059 28.5407 16.0359 29.2114C15.7509 29.5154 15.5229 29.5914 15.2759 29.4394C15.0289 29.2874 14.9339 29.0594 15.0479 28.6794C15.6179 26.9694 16.7959 25.7914 18.4109 25.0314C19.3075 24.6101 20.2894 24.4021 21.2799 24.4234Z" fill="#181715"/>
<path id="Fill 8" fill-rule="evenodd" clip-rule="evenodd" d="M27.8164 15.8916C27.1464 15.9019 26.485 15.7381 25.8972 15.4166C25.6314 15.2836 25.3842 15.1126 25.4604 14.7516C25.5364 14.3906 25.8404 14.3716 26.1064 14.3716C26.9055 14.3302 27.7001 14.2221 28.4814 14.0486C29.3132 13.8337 30.1167 13.5214 30.8754 13.1176C31.1414 12.9846 31.3692 12.9656 31.5784 13.2126C31.7872 13.4596 31.7304 13.6876 31.5784 13.9156C30.8125 15.0942 29.5245 15.83 28.1204 15.8916H27.8164ZM6.99219 13.3646C6.99219 11.5026 8.28438 9.6786 9.95638 9.1846C10.2604 9.0896 10.6022 8.9376 10.8304 9.2986C11.0584 9.6596 10.7922 9.8876 10.5834 10.1156C9.47055 11.2919 8.64481 12.7095 8.17038 14.2576C8.09438 14.5426 7.92338 14.7516 7.60038 14.7326C7.27719 14.7136 7.14438 14.5046 7.08719 14.2006C7.02924 13.9255 6.99732 13.6456 6.99219 13.3646Z" fill="#191715"/>
</g>
</svg>
