<svg width="38" height="38" viewBox="0 0 38 38" fill="none" xmlns="http://www.w3.org/2000/svg">
<g id="emo-5">
<g id="Group 3">
<mask id="mask0_146_655" style="mask-type:luminance" maskUnits="userSpaceOnUse" x="0" y="0" width="38" height="38">
<path id="Clip 2" fill-rule="evenodd" clip-rule="evenodd" d="M0 0H38V38H0V0Z" fill="white"/>
</mask>
<g mask="url(#mask0_146_655)">
<path id="Fill 1" fill-rule="evenodd" clip-rule="evenodd" d="M19 30.248C19.4317 30.2529 19.8615 30.1887 20.273 30.058C22.4251 29.3354 23.7741 27.201 23.503 24.947C23.465 24.757 23.37 24.795 23.256 24.833C22.4665 25.0555 21.659 25.2083 20.843 25.2888C18.8054 25.5079 16.7451 25.3532 14.763 24.833C14.573 24.776 14.573 24.833 14.554 24.985C14.4926 25.5048 14.5183 26.0315 14.63 26.543C15.0243 28.6607 16.8467 30.2136 19 30.267V30.248ZM34.504 17.708C34.5376 16.9535 34.3461 16.2061 33.953 15.561C33.193 14.288 32.053 13.566 30.552 13.604C29.507 13.642 28.652 14.174 27.93 14.896C27.778 15.029 27.74 14.991 27.645 14.858C27.4153 14.535 27.1402 14.247 26.828 14.003C25.935 13.281 24.928 12.996 23.788 13.281C21.5621 13.8928 20.236 16.1739 20.805 18.411C21.0758 19.3927 21.5057 20.3235 22.078 21.166C23.3928 23.1285 24.9937 24.8834 26.828 26.372C26.961 26.505 27.075 26.467 27.208 26.372C28.3377 25.6622 29.4169 24.875 30.438 24.016C31.7049 22.9716 32.8069 21.7417 33.706 20.368C34.2488 19.5882 34.5346 18.658 34.523 17.708H34.504ZM17.29 17.423C17.3215 16.0921 16.7229 14.8242 15.675 14.003C14.7022 13.156 13.3357 12.9282 12.141 13.414C11.4331 13.7011 10.8252 14.19 10.393 14.82C10.222 15.029 10.146 15.01 10.013 14.82C9.84428 14.6507 9.65979 14.4979 9.462 14.364C8.436 13.623 7.315 13.357 6.08 13.832C3.724 14.725 2.793 17.575 3.99 19.836C4.63733 21.0089 5.46421 22.0732 6.441 22.99C7.771 24.2721 9.23628 25.406 10.811 26.372C10.9233 26.4668 11.0911 26.4524 11.1859 26.3403C11.1876 26.3382 11.1893 26.3361 11.191 26.3338C12.2121 25.4856 13.171 24.5649 14.06 23.5788C15.1704 22.3752 16.0926 21.011 16.796 19.532C17.1182 18.8746 17.2934 18.1549 17.309 17.423H17.29ZM19 38C8.50649 38 0 29.4933 0 19C0 8.50649 8.50649 0 19 0C29.4935 0 38 8.50649 38 19C38.0209 29.4724 29.5486 37.9789 19.076 38H19Z" fill="#FECA00"/>
</g>
</g>
<path id="Fill 4" fill-rule="evenodd" clip-rule="evenodd" d="M34.5236 17.7074C34.5407 18.6555 34.2616 19.5854 33.7256 20.3674C32.832 21.7398 31.7367 22.9694 30.4766 24.0154C29.4494 24.8751 28.3638 25.6623 27.2276 26.3714C27.0944 26.4474 26.9806 26.5044 26.8476 26.3714C25.0108 24.8782 23.4093 23.1169 22.0976 21.1464C21.5261 20.3036 21.0959 19.3729 20.8244 18.3914C20.2736 16.1114 21.6226 13.8124 23.8266 13.2614C24.9666 12.9764 25.9544 13.2614 26.8476 13.9834C27.1611 14.2332 27.4364 14.5277 27.6644 14.8574C27.7594 14.9904 27.7976 15.0094 27.9494 14.8764C28.6716 14.1544 29.5266 13.6224 30.5716 13.6034C32.0916 13.5464 33.1936 14.2874 33.9726 15.5604C34.3721 16.2032 34.5707 16.951 34.5426 17.7074H34.5236ZM17.2906 17.4224C17.278 18.1465 17.1097 18.8594 16.7966 19.5124C16.0972 21.0048 15.1745 22.3823 14.0606 23.5974C13.178 24.5888 12.2256 25.516 11.2106 26.3714C11.1133 26.4814 10.9451 26.4917 10.8351 26.3946C10.8334 26.3931 10.8321 26.3917 10.8306 26.3904C9.25491 25.4184 7.78963 24.278 6.46058 22.9894C5.47733 22.0736 4.6438 21.0094 3.99058 19.8354C2.79358 17.5554 3.72458 14.7054 6.08058 13.8314C7.29658 13.3564 8.41758 13.6224 9.46258 14.3634C9.65448 14.5044 9.8327 14.6634 9.99458 14.8384C10.1466 14.9904 10.2416 15.0284 10.3746 14.8194C10.8118 14.1865 11.4266 13.6973 12.1416 13.4134C13.3397 12.9281 14.7083 13.1476 15.6946 13.9834C16.7424 14.8046 17.3411 16.0724 17.3096 17.4034L17.2906 17.4224Z" fill="#E84047"/>
<path id="Fill 6" fill-rule="evenodd" clip-rule="evenodd" d="M18.9986 30.2673C16.8453 30.2141 15.0228 28.661 14.6286 26.5433C14.5112 26.0392 14.4791 25.519 14.5336 25.0043C14.5526 24.8523 14.5716 24.7765 14.7426 24.8143C16.7235 25.341 18.7839 25.5021 20.8226 25.2893C21.6388 25.2086 22.4463 25.0558 23.2356 24.8333C23.3686 24.8143 23.4636 24.7573 23.4826 24.9665C23.7691 27.2237 22.4146 29.3673 20.2526 30.0773C19.8471 30.2063 19.424 30.2703 18.9986 30.2673Z" fill="#171615"/>
</g>
</svg>
