<svg width="38" height="38" viewBox="0 0 38 38" fill="none" xmlns="http://www.w3.org/2000/svg">
<g id="emo-1">
<g id="Group 3">
<mask id="mask0_146_606" style="mask-type:luminance" maskUnits="userSpaceOnUse" x="0" y="0" width="38" height="38">
<path id="Clip 2" fill-rule="evenodd" clip-rule="evenodd" d="M0 0H37.8111V37.9999H0V0Z" fill="white"/>
</mask>
<g mask="url(#mask0_146_606)">
<path id="Fill 1" fill-rule="evenodd" clip-rule="evenodd" d="M18.9057 0C29.347 0.00019 37.8112 8.50668 37.8112 19.0002C37.811 29.4935 29.3468 38 18.9055 38C8.48653 38 0.0316247 29.5283 0.000241646 19.057C-0.0519375 8.58477 8.35287 0.05282 18.7732 0.00019C18.8172 0 18.8615 0 18.9057 0Z" fill="#FECA00"/>
</g>
</g>
<path id="Fill 4" fill-rule="evenodd" clip-rule="evenodd" d="M13.5293 28.3558C13.5572 28.162 13.622 27.9754 13.72 27.807C14.3559 26.4395 15.5513 25.4338 16.9813 25.063C19.27 24.377 21.4059 24.7102 23.2751 26.3568C23.8081 26.8403 24.2037 27.4634 24.4194 28.1598C24.5332 28.4474 24.4182 28.777 24.1522 28.9242C23.8876 29.0775 23.5527 28.9913 23.3893 28.7282C22.6097 27.5632 21.3799 26.7992 20.0136 26.631C18.6372 26.375 17.217 26.6322 16.0086 27.3562C15.4532 27.6806 14.9822 28.1377 14.6355 28.689C14.4943 28.9421 14.194 29.0507 13.9298 28.9438C13.6851 28.8629 13.5272 28.6193 13.5484 28.3558H13.5293ZM7.14034 20.6922C7.1287 19.6869 7.54713 18.7266 8.28463 18.0657C8.45627 17.9089 8.4372 17.8697 8.28463 17.7325C7.52024 17.2014 6.8165 16.5834 6.18676 15.8901C5.99604 15.6745 5.91976 15.4395 6.11047 15.2041C6.30119 14.9689 6.53005 14.9885 6.77798 15.1061C7.86505 15.6549 8.87585 16.3605 9.92478 16.9681C10.9737 17.5757 12.0227 18.2029 13.1669 18.5949C13.7963 18.8301 14.4638 19.0261 15.1504 18.8889C15.3529 18.8341 15.5507 18.7619 15.7416 18.6735C16.1993 18.4969 16.4854 18.7125 16.4473 19.2025C16.39 19.8887 15.9895 20.3198 15.4174 20.5748C15.0745 20.7492 14.6934 20.8301 14.3112 20.8098C14.1205 20.7902 14.0442 20.8296 14.0252 21.045C13.8331 22.9944 12.1398 24.4146 10.2429 24.2171C8.71889 24.0583 7.47886 22.8866 7.19755 21.339C7.16112 21.1253 7.14205 20.9091 7.14034 20.6922ZM29.5303 17.9089C30.1715 18.4307 30.6165 19.1651 30.7891 19.9867C31.1631 21.9082 29.9507 23.7772 28.0809 24.1616C26.2113 24.5458 24.3927 23.2996 24.0187 21.3782C23.9805 21.1822 24.0187 20.9276 23.9042 20.8296C23.7898 20.7316 23.5228 20.7902 23.3321 20.7902C22.4357 20.7118 21.7301 20.1435 21.5775 19.3789C21.5203 19.1437 21.4822 18.8889 21.6919 18.7125C21.879 18.5563 22.1447 18.5483 22.3404 18.6929C23.0651 19.0849 23.7898 18.8889 24.5147 18.6929C25.7351 18.3597 26.8033 17.6737 27.9093 17.0465C28.9965 16.4585 30.0071 15.7335 31.0944 15.1649C31.1745 15.1208 31.2573 15.0814 31.3421 15.0475C31.5697 14.9338 31.8433 15.0312 31.9538 15.2649C32.0369 15.4401 32.006 15.65 31.8762 15.7921C31.4232 16.3397 30.9115 16.8329 30.3504 17.2621L29.5303 17.9089Z" fill="#171615"/>
</g>
</svg>
