<svg width="11" height="21" viewBox="0 0 11 21" fill="none" xmlns="http://www.w3.org/2000/svg">
<path fill-rule="evenodd" clip-rule="evenodd" d="M10.6156 20.5519C10.0744 21.1482 9.17269 21.1496 8.63004 20.5548L0.38673 11.5141C0.134549 11.2372 8.85456e-07 10.8716 9.17942e-07 10.5C9.50357e-07 10.1292 0.133575 9.76285 0.387273 9.48526L8.62995 0.445572C8.89415 0.155983 9.25279 -1.52746e-07 9.6217 -1.20495e-07C9.99174 -8.81446e-08 10.3515 0.15691 10.6159 0.448278C11.129 1.01409 11.1279 1.90951 10.6135 2.47376L3.29493 10.5L10.6132 18.5261C11.1276 19.0904 11.1288 19.9861 10.6156 20.5519Z" fill="#45A56B"/>
</svg>
