<svg width="20" height="16" viewBox="0 0 20 16" fill="none" xmlns="http://www.w3.org/2000/svg">
<path d="M3.34449 9.90515L3.80038 9.30961C3.7784 9.29278 3.7555 9.27718 3.73179 9.26289L3.34449 9.90515ZM9.99999 3.04479L9.39259 3.48475C9.53365 3.67949 9.75953 3.79479 9.99999 3.79479C10.2405 3.79479 10.4663 3.67949 10.6074 3.48475L9.99999 3.04479ZM16.6118 9.93119L16.2311 9.285C16.2049 9.30044 16.1796 9.31746 16.1555 9.33597L16.6118 9.93119ZM9.99993 15L9.54403 15.5955C9.81323 15.8016 10.1872 15.8015 10.4562 15.5952L9.99993 15ZM3.73179 9.26289C2.53429 8.54075 1.75 7.26066 1.75 5.8125H0.25C0.25 7.82116 1.34011 9.57226 2.95719 10.5474L3.73179 9.26289ZM1.75 5.8125C1.75 3.58862 3.61035 1.75 5.95 1.75V0.25C2.82203 0.25 0.25 2.72064 0.25 5.8125H1.75ZM5.95 1.75C7.37886 1.75 8.63497 2.43878 9.39259 3.48475L10.6074 2.60484C9.57335 1.17724 7.86941 0.25 5.95 0.25V1.75ZM10.6074 3.48475C11.365 2.43878 12.6211 1.75 14.05 1.75V0.25C12.1306 0.25 10.4266 1.17724 9.39259 2.60484L10.6074 3.48475ZM14.05 1.75C16.3896 1.75 18.25 3.58862 18.25 5.8125H19.75C19.75 2.72064 17.1779 0.25 14.05 0.25V1.75ZM18.25 5.8125C18.25 7.27552 17.4494 8.56718 16.2311 9.285L16.9925 10.5774C18.6373 9.6083 19.75 7.84194 19.75 5.8125H18.25ZM16.1555 9.33597L9.54362 14.4048L10.4562 15.5952L17.0681 10.5264L16.1555 9.33597ZM10.4558 14.4045L3.80038 9.30961L2.8886 10.5007L9.54403 15.5955L10.4558 14.4045Z" fill="black"/>
</svg>
