<svg width="20" height="16" viewBox="0 0 20 16" fill="none" xmlns="http://www.w3.org/2000/svg">
    <path d="M3.34478 9.90532L3.80067 9.30978C3.77867 9.29295 3.75576 9.27734 3.73204 9.26304L3.34478 9.90532ZM9.99999 3.04479L9.39259 3.48475C9.53365 3.67949 9.75953 3.79479 9.99999 3.79479C10.2405 3.79479 10.4663 3.67949 10.6074 3.48475L9.99999 3.04479ZM16.6121 9.93103L16.2313 9.28487C16.2051 9.30031 16.1799 9.31732 16.1558 9.33581L16.6121 9.93103ZM9.99999 15L9.5441 15.5955C9.81329 15.8016 10.1872 15.8015 10.4563 15.5952L9.99999 15ZM3.73204 9.26304C2.53439 8.54093 1.75 7.26076 1.75 5.8125H0.25C0.25 7.8213 1.34026 9.5725 2.95752 10.5476L3.73204 9.26304ZM1.75 5.8125C1.75 3.58862 3.61035 1.75 5.95 1.75V0.25C2.82203 0.25 0.25 2.72064 0.25 5.8125H1.75ZM5.95 1.75C7.37886 1.75 8.63497 2.43878 9.39259 3.48475L10.6074 2.60484C9.57335 1.17724 7.86941 0.25 5.95 0.25V1.75ZM10.6074 3.48475C11.365 2.43878 12.6211 1.75 14.05 1.75V0.25C12.1306 0.25 10.4266 1.17724 9.39259 2.60484L10.6074 3.48475ZM14.05 1.75C16.3896 1.75 18.25 3.58862 18.25 5.8125H19.75C19.75 2.72064 17.1779 0.25 14.05 0.25V1.75ZM18.25 5.8125C18.25 7.27543 17.4495 8.56702 16.2313 9.28487L16.9928 10.5772C18.6374 9.60808 19.75 7.84182 19.75 5.8125H18.25ZM16.1558 9.33581L9.54368 14.4048L10.4563 15.5952L17.0684 10.5262L16.1558 9.33581ZM10.4559 14.4045L3.80067 9.30978L2.88888 10.5009L9.5441 15.5955L10.4559 14.4045Z"
          fill="#45A56B"/>
</svg>
