<svg width="18" height="20" viewBox="0 0 18 20" fill="none" xmlns="http://www.w3.org/2000/svg">
    <path d="M15.9269 15.9289C15.5169 15.9289 15.116 16.0483 14.7751 16.272C14.4342 16.4957 14.1685 16.8136 14.0116 17.1856C13.8547 17.5576 13.8137 17.9669 13.8937 18.3618C13.9738 18.7567 14.1713 19.1194 14.4612 19.404C14.7512 19.6887 15.1207 19.8825 15.5229 19.961C15.925 20.0394 16.3419 19.999 16.7207 19.8449C17.0995 19.6907 17.4232 19.4297 17.6509 19.0949C17.8786 18.7601 18.0001 18.3664 18 17.9638C18 17.6965 17.9464 17.4319 17.8422 17.185C17.738 16.938 17.5853 16.7137 17.3928 16.5247C17.2003 16.3357 16.9717 16.1859 16.7202 16.0836C16.4687 15.9814 16.1991 15.9288 15.9269 15.9289ZM17.535 0H0.464406C0.34134 0.000327475 0.223411 0.0484751 0.13639 0.13392C0.049369 0.219366 0.000333513 0.33516 0 0.455998L0 5.25793C0 5.37887 0.0489284 5.49486 0.136021 5.58037C0.223114 5.66589 0.341238 5.71393 0.464406 5.71393H5.76306V19.5428C5.76322 19.6637 5.81219 19.7797 5.89923 19.8652C5.98626 19.9508 6.10429 19.9991 6.22746 19.9994H7.58214C10.3623 19.9994 12.2344 18.4217 12.2344 16.0735V5.71393H17.5324C17.6556 5.7136 17.7736 5.66548 17.8607 5.58005C17.9478 5.49462 17.997 5.37883 17.9975 5.25793V0.455998C17.997 0.335531 17.9482 0.220109 17.8616 0.134751C17.775 0.0493938 17.6576 0.000978434 17.535 0Z"
          fill="#45A56B"/>
</svg>
